<?xml version="1.0" encoding="UTF-8"?>
<svg id="Layer_1" data-name="Layer 1" xmlns="http://www.w3.org/2000/svg" viewBox="0 0 1080 1080">
  <defs>
    <style>
      .cls-1 {
        fill: #181c21;
      }
    </style>
  </defs>
  <g>
    <path class="cls-1" d="M822.49,613.7c-8.97-.55-17.94-.91-26.92-1.37l-26.92-1.28-21.35-.87,.57-14.15c.29-6.43,.46-12.86,.67-19.28l1.23-38.57,.62-19.28,.47-19.28,.89-38.57,.35-15.14-14.42,5.98-24.18,10.03-24.13,10.14c-13.6,5.75-27.21,11.5-40.79,17.31l-21.07-20.36-26.75-25.62c-17.79-17.12-35.79-34.03-53.67-51.05l-9.03-8.6-8.82,8.86-50.75,50.96c-14.7,14.96-29.47,29.85-44.14,44.84l-40.51-22.07-24.37-13.18-24.44-13.05-15.73-8.4,.39,17.38,.95,41.56,.47,20.78,.62,20.78,1.32,41.56,.69,20.78,.64,15.6-21.74,.88c-9.12,.34-18.23,.86-27.35,1.28-9.11,.47-18.23,.84-27.35,1.39-9.12,.53-18.24,1-27.35,1.62,9.11,.62,18.23,1.09,27.35,1.63,9.11,.55,18.23,.92,27.35,1.39,9.12,.43,18.23,.94,27.35,1.29l27.35,1.1,5.18,.21,.23-5.61,.84-20.78,.69-20.78,1.32-41.56,.62-20.78,.47-20.78,.54-23.76,8.92,5.27,23.93,13.96,47.94,27.77,7.78,4.51,6.67-6.49c17.18-16.72,34.17-33.64,51.27-50.45l42.17-41.98c14.97,14.08,29.9,28.19,44.98,42.16l27.1,25.24,27.21,25.12,5.88,5.43,7.06-3.2c15.89-7.2,31.72-14.54,47.56-21.85l23.73-11.02,9.98-4.68,.53,22.96,.47,19.28,.62,19.28,1.23,38.57c.21,6.43,.38,12.86,.67,19.28l.78,19.29,.23,5.57,5.14-.21,26.92-1.09,26.92-1.28c8.98-.47,17.95-.83,26.92-1.38,8.98-.53,17.95-1,26.92-1.61-8.97-.61-17.95-1.08-26.92-1.61Z"/>
    <rect class="cls-1" x="500.32" y="537.79" width="31.84" height="31.84"/>
    <rect class="cls-1" x="553.23" y="537.79" width="31.84" height="31.84"/>
    <rect class="cls-1" x="500.32" y="587.89" width="31.84" height="31.84"/>
    <rect class="cls-1" x="553.23" y="587.89" width="31.84" height="31.84"/>
    <rect class="cls-1" x="373.39" y="537.79" width="31.84" height="31.84"/>
    <rect class="cls-1" x="373.39" y="587.89" width="31.84" height="31.84"/>
    <rect class="cls-1" x="681.1" y="537.79" width="31.84" height="31.84"/>
    <rect class="cls-1" x="681.1" y="587.89" width="31.84" height="31.84"/>
  </g>
  <g>
    <path d="M458.58,682.29v-37.8h15.55c3.35,0,6.22,.53,8.61,1.59,2.39,1.06,4.24,2.6,5.53,4.62,1.3,2.02,1.94,4.43,1.94,7.24s-.65,5.16-1.94,7.15-3.14,3.55-5.53,4.64c-2.39,1.1-5.27,1.65-8.61,1.65h-11.61l3.08-3.24v14.15h-7.02Zm7.02-13.39l-3.08-3.46h11.29c3.1,0,5.43-.66,6.99-1.97,1.57-1.31,2.35-3.16,2.35-5.53s-.78-4.22-2.35-5.54-3.9-1.97-6.99-1.97h-11.29l3.08-3.46v21.92Z"/>
    <path d="M496.38,682.29v-28.84h6.43v7.94l-.76-2.32c.83-1.94,2.18-3.43,4.05-4.46,1.87-1.03,4.16-1.54,6.86-1.54v6.43c-.25-.04-.5-.06-.76-.08-.25-.02-.49-.03-.7-.03-2.59,0-4.64,.74-6.16,2.21-1.51,1.48-2.27,3.73-2.27,6.75v13.93h-6.7Z"/>
    <path d="M531.42,682.67c-2.92,0-5.54-.64-7.86-1.92-2.32-1.28-4.15-3.03-5.48-5.26-1.33-2.23-2-4.77-2-7.61s.67-5.47,2-7.67c1.33-2.2,3.15-3.93,5.45-5.21,2.3-1.28,4.93-1.92,7.88-1.92s5.64,.64,7.96,1.92c2.32,1.28,4.14,3.02,5.45,5.21,1.31,2.2,1.97,4.75,1.97,7.67s-.66,5.43-1.97,7.64c-1.31,2.21-3.14,3.96-5.48,5.24-2.34,1.28-4.99,1.92-7.94,1.92Zm0-5.72c1.66,0,3.13-.37,4.43-1.11,1.3-.74,2.31-1.8,3.05-3.19,.74-1.39,1.11-2.98,1.11-4.78s-.37-3.43-1.11-4.78c-.74-1.35-1.76-2.39-3.05-3.13-1.3-.74-2.75-1.11-4.37-1.11s-3.08,.37-4.37,1.11c-1.3,.74-2.32,1.78-3.08,3.13-.76,1.35-1.13,2.94-1.13,4.78s.38,3.39,1.13,4.78c.76,1.39,1.78,2.45,3.08,3.19,1.3,.74,2.74,1.11,4.32,1.11Z"/>
    <path d="M553.35,692.77v-39.31h6.43v6.8l-.27,7.67,.54,7.67v17.17h-6.7Zm15.93-10.1c-2.38,0-4.52-.53-6.43-1.59-1.91-1.06-3.42-2.69-4.54-4.89-1.12-2.2-1.67-4.97-1.67-8.32s.53-6.16,1.59-8.34c1.06-2.18,2.56-3.8,4.51-4.86,1.94-1.06,4.12-1.59,6.53-1.59,2.81,0,5.31,.61,7.51,1.84,2.2,1.22,3.93,2.95,5.21,5.18,1.28,2.23,1.92,4.83,1.92,7.78s-.64,5.59-1.92,7.8c-1.28,2.21-3.02,3.93-5.21,5.16-2.2,1.22-4.7,1.84-7.51,1.84Zm-.81-5.72c1.66,0,3.12-.38,4.4-1.13,1.28-.76,2.29-1.82,3.05-3.19s1.13-2.95,1.13-4.75-.38-3.43-1.13-4.78c-.76-1.35-1.77-2.39-3.05-3.13-1.28-.74-2.75-1.11-4.4-1.11s-3.02,.37-4.32,1.11c-1.3,.74-2.32,1.78-3.08,3.13-.76,1.35-1.13,2.94-1.13,4.78s.38,3.38,1.13,4.75,1.78,2.43,3.08,3.19c1.3,.76,2.74,1.13,4.32,1.13Z"/>
    <path d="M590.98,682.29v-37.8h7.02v37.8h-7.02Z"/>
    <path d="M615.88,682.29v-31.86h-12.53v-5.94h32.08v5.94h-12.53v31.86h-7.02Z"/>
  </g>
</svg>