<?xml version="1.0" encoding="UTF-8"?>
<svg id="Layer_1" data-name="Layer 1" xmlns="http://www.w3.org/2000/svg" viewBox="0 0 1080 1080">
  <path d="M347.64,570.36v-84h32.76c7.36,0,13.64,1.16,18.84,3.48,5.2,2.32,9.2,5.68,12,10.08,2.8,4.4,4.2,9.64,4.2,15.72s-1.4,11.3-4.2,15.66c-2.8,4.36-6.8,7.72-12,10.08-5.2,2.36-11.48,3.54-18.84,3.54h-26.16l5.4-5.64v31.08h-12Zm12-29.88l-5.4-6h25.8c7.68,0,13.5-1.64,17.46-4.92,3.96-3.28,5.94-7.92,5.94-13.92s-1.98-10.64-5.94-13.92c-3.96-3.28-9.78-4.92-17.46-4.92h-25.8l5.4-6v49.68Z"/>
  <path d="M430.32,570.36v-63.6h11.04v17.28l-1.08-4.32c1.76-4.4,4.72-7.76,8.88-10.08,4.16-2.32,9.28-3.48,15.36-3.48v11.16c-.48-.08-.94-.12-1.38-.12h-1.26c-6.16,0-11.04,1.84-14.64,5.52-3.6,3.68-5.4,9-5.4,15.96v31.68h-11.52Z"/>
  <path d="M505.32,571.08c-6.4,0-12.08-1.4-17.04-4.2-4.96-2.8-8.88-6.66-11.76-11.58-2.88-4.92-4.32-10.5-4.32-16.74s1.44-11.92,4.32-16.8c2.88-4.88,6.8-8.7,11.76-11.46,4.96-2.76,10.64-4.14,17.04-4.14s11.98,1.38,16.98,4.14c5,2.76,8.92,6.56,11.76,11.4,2.84,4.84,4.26,10.46,4.26,16.86s-1.42,11.92-4.26,16.8c-2.84,4.88-6.76,8.72-11.76,11.52-5,2.8-10.66,4.2-16.98,4.2Zm0-10.08c4.08,0,7.74-.92,10.98-2.76,3.24-1.84,5.78-4.46,7.62-7.86,1.84-3.4,2.76-7.34,2.76-11.82s-.92-8.5-2.76-11.82c-1.84-3.32-4.38-5.9-7.62-7.74-3.24-1.84-6.9-2.76-10.98-2.76s-7.72,.92-10.92,2.76c-3.2,1.84-5.76,4.42-7.68,7.74-1.92,3.32-2.88,7.26-2.88,11.82s.96,8.42,2.88,11.82c1.92,3.4,4.48,6.02,7.68,7.86,3.2,1.84,6.84,2.76,10.92,2.76Z"/>
  <path d="M554.28,593.64v-86.88h11.04v17.16l-.72,14.76,1.2,14.76v40.2h-11.52Zm33.72-22.56c-5.28,0-10.1-1.22-14.46-3.66-4.36-2.44-7.84-6.06-10.44-10.86-2.6-4.8-3.9-10.8-3.9-18s1.26-13.2,3.78-18c2.52-4.8,5.96-8.4,10.32-10.8,4.36-2.4,9.26-3.6,14.7-3.6,6.24,0,11.76,1.36,16.56,4.08,4.8,2.72,8.6,6.5,11.4,11.34,2.8,4.84,4.2,10.5,4.2,16.98s-1.4,12.16-4.2,17.04c-2.8,4.88-6.6,8.68-11.4,11.4-4.8,2.72-10.32,4.08-16.56,4.08Zm-.96-10.08c4.08,0,7.74-.92,10.98-2.76,3.24-1.84,5.8-4.46,7.68-7.86,1.88-3.4,2.82-7.34,2.82-11.82s-.94-8.5-2.82-11.82c-1.88-3.32-4.44-5.9-7.68-7.74-3.24-1.84-6.9-2.76-10.98-2.76s-7.62,.92-10.86,2.76c-3.24,1.84-5.8,4.42-7.68,7.74-1.88,3.32-2.82,7.26-2.82,11.82s.94,8.42,2.82,11.82c1.88,3.4,4.44,6.02,7.68,7.86,3.24,1.84,6.86,2.76,10.86,2.76Z"/>
  <path d="M637.8,570.36v-84h12v84h-12Z"/>
  <path d="M691.68,570.36v-73.56h-28.8v-10.44h69.48v10.44h-28.8v73.56h-11.88Z"/>
</svg>